HIERARCHY
ROOT Hips
{
  OFFSET 0.000000 0.000000 0.000000
  CHANNELS 6 Xposition Yposition Zposition Zrotation Yrotation Xrotation
  JOINT Spine
  {
    OFFSET -0.021080 2.075730 -0.169808
    CHANNELS 3 Zrotation Yrotation Xrotation
    JOINT Spine1
    {
      OFFSET 0.050701 2.084387 -0.031413
      CHANNELS 3 Zrotation Yrotation Xrotation
      JOINT Spine2
      {
        OFFSET 0.059950 2.095031 0.048503
        CHANNELS 3 Zrotation Yrotation Xrotation
        JOINT Neck
        {
          OFFSET -0.107307 1.604075 0.313698
          CHANNELS 3 Zrotation Yrotation Xrotation
          JOINT Head
          {
            OFFSET 0.039111 1.691495 -0.141461
            CHANNELS 3 Zrotation Yrotation Xrotation
            End Site
            {
              OFFSET 0 0 0
            }
          }
        }
        JOINT LeftShoulder
        {
          OFFSET 3.523153 0.732192 -0.546943
          CHANNELS 3 Zrotation Yrotation Xrotation
          JOINT LeftArm
          {
            OFFSET 5.324620 -0.000000 -0.000000
            CHANNELS 3 Zrotation Yrotation Xrotation
            JOINT LeftForeArm
            {
              OFFSET 3.484020 -0.000000 -0.000000
              CHANNELS 3 Zrotation Yrotation Xrotation
              JOINT LeftHand
              {
                OFFSET 0.572476 -0.000000 -0.000000
                CHANNELS 3 Zrotation Yrotation Xrotation
                JOINT LeftHandIndex1
                {
                  OFFSET 0.461545 -0.000000 -0.000000
                  CHANNELS 3 Zrotation Yrotation Xrotation
                  End Site
                  {
                    OFFSET 0 0 0
                  }
                }
              }
            }
          }
        }
        JOINT RightShoulder
        {
          OFFSET -3.417658 0.935924 -0.100189
          CHANNELS 3 Zrotation Yrotation Xrotation
          JOINT RightArm
          {
            OFFSET -5.335890 -0.000000 -0.000000
            CHANNELS 3 Zrotation Yrotation Xrotation
            JOINT RightForeArm
            {
              OFFSET -3.641340 -0.000000 -0.000000
              CHANNELS 3 Zrotation Yrotation Xrotation
              JOINT RightHand
              {
                OFFSET -0.734811 -0.000000 -0.000000
                CHANNELS 3 Zrotation Yrotation Xrotation
                JOINT RightHandIndex1
                {
                  OFFSET -0.592424 -0.000000 -0.000000
                  CHANNELS 3 Zrotation Yrotation Xrotation
                  End Site
                  {
                    OFFSET 0 0 0
                  }
                }
              }
            }
          }
        }
      }
    }
  }
  JOINT LeftUpLeg
  {
    OFFSET 2.571388 -7.064838 0.000000
    CHANNELS 3 Zrotation Yrotation Xrotation
    JOINT LeftLeg
    {
      OFFSET 2.520174 -6.924128 0.000000
      CHANNELS 3 Zrotation Yrotation Xrotation
      JOINT LeftFoot
      {
        OFFSET 0.232946 -0.640014 2.102138
        CHANNELS 3 Zrotation Yrotation Xrotation
        JOINT LeftToeBase
        {
          OFFSET 0.000000 -0.000000 1.101390
          CHANNELS 3 Zrotation Yrotation Xrotation
          End Site
          {
            OFFSET 0 0 0
          }
        }
      }
    }
  }
  JOINT RightUpLeg
  {
    OFFSET -2.632579 -7.232958 0.000000
    CHANNELS 3 Zrotation Yrotation Xrotation
    JOINT RightLeg
    {
      OFFSET -2.547789 -6.999999 0.000000
      CHANNELS 3 Zrotation Yrotation Xrotation
      JOINT RightFoot
      {
        OFFSET -0.230669 -0.633756 2.121613
        CHANNELS 3 Zrotation Yrotation Xrotation
        JOINT RightToeBase
        {
          OFFSET -0.000000 -0.000000 1.110000
          CHANNELS 3 Zrotation Yrotation Xrotation
          End Site
          {
            OFFSET 0 0 0
          }
        }
      }
    }
  }
}
MOTION
Frames: 12
Frame Time: 0.00833333
1.414280 17.496500 1.816420 16.522300 -75.911500 -12.313100 -28.237600 3.184190 -14.662100 0.000000 0.000000 31.254000 -1.382870 0.000000 -17.240700 0.000000 0.000000 -0.280994 11.041000 0.210457 -19.358100 0.000000 0.000000 41.825800 3.175530 0.000000 -23.808600 0.000000 0.000000 0.768169 -5.432000 0.795651 0.949411 1.142410 1.022280 0.845584 4.218170 0.484301 0.222462 -9.436170 1.936060 -25.984900 1.399980 2.001940 9.896920 0.000000 -0.000000 0.000000 82.730700 6.553890 -30.018700 0.000000 0.000000 30.785400 25.505900 0.000000 -10.033900 0.000000 0.000000 7.125020 0.000000 -0.000000 0.000000 -78.873600 -8.742540 -32.630200 0.000000 0.000000 31.416700 5.841060 0.000000 -18.641100 0.000000 0.000000 7.125020
1.403800 17.499500 1.826690 16.170400 -76.021200 -12.077200 -28.161500 3.112830 -14.468300 0.000000 0.000000 31.203300 -1.127320 0.000000 -17.287700 0.000000 0.000000 -0.658601 11.224900 0.914134 -19.144500 0.000000 0.000000 41.575900 2.386890 0.000000 -22.813100 0.000000 0.000000 6.108980 -5.313270 0.830931 0.902150 1.087120 1.073370 0.882213 4.094250 0.507823 0.283928 -9.443310 1.864240 -25.881300 1.414280 1.958940 9.851450 0.000000 0.000000 0.000000 82.625400 6.568260 -29.891700 0.000000 0.000000 30.784300 25.665400 0.000000 -9.984280 0.000000 0.000000 7.125020 0.000000 0.000000 0.000000 -78.649900 -9.228890 -32.567000 0.000000 0.000000 31.056600 7.620470 0.000000 -18.369800 0.000000 0.000000 7.125020
1.400140 17.498300 1.834940 16.715500 -76.006700 -12.655000 -28.349100 3.224060 -14.364000 0.000000 0.000000 31.158600 -1.077130 0.000000 -17.282200 0.000000 0.000000 -1.631940 11.088700 1.581940 -19.002000 0.000000 0.000000 41.516000 1.074600 0.000000 -22.614400 0.000000 0.000000 7.898780 -5.463110 0.845157 0.892566 1.033260 1.092050 0.877718 4.122900 0.516770 0.281105 -9.528060 1.789630 -25.779500 1.421120 1.918080 9.806730 -0.000000 0.000000 0.000000 82.533500 6.969390 -29.801200 0.000000 0.000000 30.766900 25.690100 0.000000 -9.977390 0.000000 0.000000 7.125020 -0.000000 0.000000 0.000000 -78.723500 -9.024950 -32.525900 0.000000 0.000000 31.134400 6.627370 0.000000 -18.231000 0.000000 0.000000 7.125020
1.399880 17.496100 1.842160 17.125400 -75.934000 -13.027300 -28.511300 3.149170 -14.371900 0.000000 0.000000 31.154200 -0.941059 0.000000 -17.292800 0.000000 0.000000 -2.238900 10.947100 2.141770 -18.889600 0.000000 0.000000 41.393000 -0.731853 0.000000 -23.249000 0.000000 0.000000 4.737820 -5.554830 0.829228 0.851024 0.942386 1.072610 0.864726 4.081180 0.506751 0.293368 -9.573650 1.716250 -25.842100 1.458110 1.881740 9.830340 -0.000000 0.000000 0.000000 82.416000 7.149810 -29.705800 0.000000 0.000000 30.823100 25.738400 0.000000 -10.029900 0.000000 0.000000 7.125020 -0.000000 0.000000 0.000000 -78.710700 -9.123650 -32.438800 0.000000 0.000000 31.047700 6.562770 0.000000 -18.058900 0.000000 0.000000 7.125020
1.395960 17.498900 1.848100 16.165700 -75.926000 -12.139500 -28.278700 2.872540 -14.309200 0.000000 0.000000 31.168900 -0.740130 0.000000 -17.302400 0.000000 0.000000 -2.059660 11.196900 2.886620 -18.708800 0.000000 0.000000 41.277100 -2.342060 0.000000 -23.968600 0.000000 0.000000 1.670600 -5.318090 0.818900 0.876375 0.917277 1.058220 0.840866 3.921140 0.502223 0.260478 -9.514390 1.659360 -25.815900 1.464030 1.842600 9.836070 0.000000 0.000000 0.000000 82.314400 7.021190 -29.663800 0.000000 0.000000 30.892700 25.850200 0.000000 -10.230500 0.000000 0.000000 7.125020 0.000000 0.000000 0.000000 -78.714300 -9.271080 -32.391500 0.000000 0.000000 30.864000 6.702910 0.000000 -17.999700 0.000000 0.000000 7.125020
1.389840 17.504700 1.852610 14.882000 -75.930800 -10.905000 -27.948700 2.757770 -14.290500 0.000000 0.000000 31.215300 -0.688477 0.000000 -17.345600 0.000000 0.000000 -2.096460 11.533800 3.673330 -18.571400 0.000000 0.000000 41.129900 -2.732020 0.000000 -23.988300 0.000000 0.000000 3.185610 -5.071160 0.774894 0.882833 0.980700 0.999675 0.782583 3.847530 0.476796 0.205846 -9.607210 1.637040 -25.672800 1.508470 1.837050 9.769840 -0.000000 -0.000000 0.000000 82.199200 7.340160 -29.680500 0.000000 0.000000 30.915300 25.853700 0.000000 -10.523200 0.000000 0.000000 7.125020 -0.000000 -0.000000 0.000000 -78.682400 -9.121080 -32.365400 0.000000 0.000000 30.705600 6.997360 0.000000 -18.074900 0.000000 0.000000 7.125020
1.383230 17.507500 1.856670 14.157600 -75.962400 -10.240500 -27.769000 2.788490 -14.250900 0.000000 0.000000 31.262500 -0.643457 0.000000 -17.362700 0.000000 0.000000 -2.425260 11.715800 4.220820 -18.430800 0.000000 0.000000 40.981000 -2.112470 0.000000 -23.510000 0.000000 0.000000 7.105660 -4.961730 0.724445 0.881953 1.020180 0.932610 0.750507 3.827120 0.445008 0.181260 -9.769090 1.651040 -25.668600 1.617860 1.867070 9.758550 -0.000000 -0.000000 0.000000 82.048400 7.873130 -29.735600 0.000000 0.000000 30.953900 25.792000 0.000000 -10.855000 0.000000 0.000000 7.125020 -0.000000 -0.000000 0.000000 -78.648500 -8.970230 -32.300300 0.000000 0.000000 30.520100 7.524730 0.000000 -18.258500 0.000000 0.000000 7.125020
1.375760 17.510200 1.862270 13.597600 -75.982700 -9.772870 -27.631500 2.632510 -14.149100 0.000000 0.000000 31.275300 -0.553014 0.000000 -17.404500 0.000000 0.000000 -2.030340 11.854800 4.473220 -18.257100 0.000000 0.000000 40.857500 -1.732650 0.000000 -23.248300 0.000000 0.000000 8.941580 -4.922380 0.697286 0.903450 1.044210 0.895320 0.738948 3.829820 0.427239 0.161322 -9.694370 1.662730 -25.694500 1.609970 1.870070 9.757720 -0.000000 0.000000 0.000000 81.926800 8.408300 -29.776400 0.000000 0.000000 30.993700 25.904700 0.000000 -11.221900 0.000000 0.000000 7.125020 -0.000000 0.000000 0.000000 -78.588300 -9.057320 -32.250600 0.000000 0.000000 30.382700 7.466640 0.000000 -18.269800 0.000000 0.000000 7.125020
1.367770 17.512600 1.871610 13.496300 -75.961800 -9.714430 -27.646700 2.386420 -14.052100 0.000000 0.000000 31.251800 -0.309602 0.000000 -17.401200 0.000000 0.000000 -1.938900 11.859200 4.568630 -18.139800 0.000000 0.000000 40.796600 -2.299600 0.000000 -23.297400 0.000000 0.000000 6.052770 -4.960110 0.660839 0.828250 1.050270 0.850594 0.748757 3.858860 0.403015 0.217630 -9.691900 1.630980 -25.686100 1.602670 1.851720 9.729450 -0.000000 -0.000000 0.000000 81.854200 8.865020 -29.814400 0.000000 0.000000 31.054200 25.983900 0.000000 -11.485300 0.000000 0.000000 7.125020 -0.000000 -0.000000 0.000000 -78.529700 -8.918720 -32.167900 0.000000 0.000000 30.369800 7.052440 0.000000 -18.139200 0.000000 0.000000 7.125020
1.354120 17.518800 1.884180 13.098600 -75.981700 -9.418640 -27.595900 2.097500 -13.867800 0.000000 0.000000 31.220900 0.101317 0.000000 -17.443200 0.000000 0.000000 -2.486270 11.938200 4.819540 -17.933500 0.000000 0.000000 40.741300 -2.983970 0.000000 -23.243100 0.000000 0.000000 2.687870 -4.830100 0.671065 0.678220 1.054850 0.873714 0.829249 3.792560 0.408957 0.383938 -9.766790 1.556270 -25.764300 1.616130 1.817170 9.724990 -0.000000 -0.000000 0.000000 81.849600 9.152630 -29.709900 0.000000 0.000000 31.023000 25.988600 0.000000 -11.665800 0.000000 0.000000 7.125020 -0.000000 -0.000000 0.000000 -78.472700 -8.717220 -32.044800 0.000000 0.000000 30.372100 6.745870 0.000000 -18.224700 0.000000 0.000000 7.125020
1.350460 17.522600 1.889840 12.809600 -75.728300 -9.133550 -27.595300 1.798470 -13.837100 0.000000 0.000000 31.188600 0.146880 0.000000 -17.409000 0.000000 0.000000 -2.606880 11.956200 4.773600 -17.815900 0.000000 0.000000 40.688400 -3.139050 0.000000 -22.896700 0.000000 0.000000 1.901360 -4.841060 0.610471 0.678284 1.033860 0.792747 0.816563 3.777450 0.368852 0.379219 -9.801560 1.493060 -25.875600 1.633040 1.788190 9.734840 -0.000000 -0.000000 0.000000 81.830900 9.471470 -29.632800 0.000000 0.000000 30.966300 25.933600 0.000000 -11.630300 0.000000 0.000000 7.125020 -0.000000 -0.000000 0.000000 -78.377700 -8.733670 -31.976100 0.000000 0.000000 30.322700 6.573960 0.000000 -18.217600 0.000000 0.000000 7.125020
1.345830 17.524800 1.898270 12.186700 -75.552400 -8.526430 -27.496200 1.513140 -13.792500 0.000000 0.000000 31.168600 0.289506 0.000000 -17.406800 0.000000 0.000000 -2.333310 12.050500 4.751040 -17.686300 0.000000 0.000000 40.602400 -2.911010 0.000000 -22.688000 0.000000 0.000000 2.829370 -4.771740 0.549099 0.658241 1.055990 0.711768 0.792706 3.761790 0.329284 0.374589 -9.724960 1.482710 -25.984500 1.620730 1.778820 9.770750 -0.000000 0.000000 0.000000 81.862400 9.662080 -29.658500 0.000000 0.000000 30.967400 26.043000 0.000000 -11.540900 0.000000 0.000000 7.125020 -0.000000 0.000000 0.000000 -78.271800 -8.695670 -31.939700 0.000000 0.000000 30.338000 5.752030 0.000000 -18.430900 0.000000 0.000000 7.125020
